<svg width="294" height="55" viewBox="0 0 294 55" fill="none" xmlns="http://www.w3.org/2000/svg">
<path d="M22.032 40.032H14.256V53.424H0V3.024H23.04C27.6 3.024 31.56 3.792 34.92 5.328C38.28 6.816 40.872 8.976 42.696 11.808C44.52 14.592 45.432 17.88 45.432 21.672C45.432 25.32 44.568 28.512 42.84 31.248C41.16 33.936 38.736 36.048 35.568 37.584L46.44 53.424H31.176L22.032 40.032ZM31.032 21.672C31.032 19.32 30.288 17.496 28.8 16.2C27.312 14.904 25.104 14.256 22.176 14.256H14.256V29.016H22.176C25.104 29.016 27.312 28.392 28.8 27.144C30.288 25.848 31.032 24.024 31.032 21.672Z" fill="white"/>
<path d="M93.6889 14.4V53.424H80.6569V49.248C79.2169 50.832 77.4889 52.032 75.4729 52.848C73.4569 53.664 71.3209 54.072 69.0649 54.072C64.0249 54.072 59.9929 52.584 56.9689 49.608C53.9929 46.632 52.5049 42.168 52.5049 36.216V14.4H66.1849V33.984C66.1849 36.912 66.7369 39.048 67.8409 40.392C68.9449 41.736 70.5529 42.408 72.6649 42.408C74.8249 42.408 76.5769 41.664 77.9209 40.176C79.3129 38.64 80.0089 36.312 80.0089 33.192V14.4H93.6889Z" fill="white"/>
<path d="M127.916 13.752C132.764 13.752 136.652 15.192 139.58 18.072C142.556 20.952 144.044 25.296 144.044 31.104V53.424H130.364V33.336C130.364 28.008 128.228 25.344 123.956 25.344C121.604 25.344 119.708 26.112 118.268 27.648C116.876 29.184 116.18 31.488 116.18 34.56V53.424H102.5V14.4H115.532V18.648C117.068 17.064 118.892 15.864 121.004 15.048C123.116 14.184 125.42 13.752 127.916 13.752Z" fill="white"/>
<path d="M194.668 0V53.424H181.636V49.536C179.092 52.56 175.276 54.072 170.188 54.072C166.636 54.072 163.396 53.256 160.468 51.624C157.54 49.944 155.212 47.568 153.484 44.496C151.804 41.424 150.964 37.872 150.964 33.84C150.964 29.808 151.804 26.28 153.484 23.256C155.212 20.184 157.54 17.832 160.468 16.2C163.396 14.568 166.636 13.752 170.188 13.752C174.844 13.752 178.444 15.096 180.988 17.784V0H194.668ZM173.068 43.2C175.42 43.2 177.364 42.384 178.9 40.752C180.436 39.072 181.204 36.768 181.204 33.84C181.204 30.96 180.436 28.704 178.9 27.072C177.412 25.44 175.468 24.624 173.068 24.624C170.668 24.624 168.7 25.44 167.164 27.072C165.628 28.704 164.86 30.96 164.86 33.84C164.86 36.768 165.628 39.072 167.164 40.752C168.7 42.384 170.668 43.2 173.068 43.2Z" fill="white"/>
<path d="M223.053 54.072C218.877 54.072 215.109 53.208 211.749 51.48C208.389 49.752 205.749 47.352 203.829 44.28C201.957 41.208 201.021 37.728 201.021 33.84C201.021 30 201.957 26.544 203.829 23.472C205.749 20.4 208.365 18.024 211.677 16.344C215.037 14.616 218.829 13.752 223.053 13.752C227.277 13.752 231.069 14.616 234.429 16.344C237.789 18.024 240.405 20.4 242.277 23.472C244.149 26.496 245.085 29.952 245.085 33.84C245.085 37.728 244.149 41.208 242.277 44.28C240.405 47.352 237.789 49.752 234.429 51.48C231.069 53.208 227.277 54.072 223.053 54.072ZM223.053 43.2C225.453 43.2 227.421 42.384 228.957 40.752C230.493 39.072 231.261 36.768 231.261 33.84C231.261 30.96 230.493 28.704 228.957 27.072C227.421 25.44 225.453 24.624 223.053 24.624C220.653 24.624 218.685 25.44 217.149 27.072C215.613 28.704 214.845 30.96 214.845 33.84C214.845 36.768 215.613 39.072 217.149 40.752C218.685 42.384 220.653 43.2 223.053 43.2Z" fill="white"/>
<path d="M271.006 54.072C266.83 54.072 263.062 53.208 259.702 51.48C256.342 49.752 253.702 47.352 251.782 44.28C249.91 41.208 248.974 37.728 248.974 33.84C248.974 30 249.91 26.544 251.782 23.472C253.702 20.4 256.318 18.024 259.63 16.344C262.99 14.616 266.782 13.752 271.006 13.752C275.23 13.752 279.022 14.616 282.382 16.344C285.742 18.024 288.358 20.4 290.23 23.472C292.102 26.496 293.038 29.952 293.038 33.84C293.038 37.728 292.102 41.208 290.23 44.28C288.358 47.352 285.742 49.752 282.382 51.48C279.022 53.208 275.23 54.072 271.006 54.072ZM271.006 43.2C273.406 43.2 275.374 42.384 276.91 40.752C278.446 39.072 279.214 36.768 279.214 33.84C279.214 30.96 278.446 28.704 276.91 27.072C275.374 25.44 273.406 24.624 271.006 24.624C268.606 24.624 266.638 25.44 265.102 27.072C263.566 28.704 262.798 30.96 262.798 33.84C262.798 36.768 263.566 39.072 265.102 40.752C266.638 42.384 268.606 43.2 271.006 43.2Z" fill="white"/>
</svg>
